<svg width="151" height="36" viewBox="0 0 151 36" fill="none" xmlns="http://www.w3.org/2000/svg">
<path d="M59.424 24.016L56.4 12.8H58.224L60.448 22.08L63.008 12.8H64.88L67.36 22.08L69.584 12.8H71.408L68.336 24H66.352L63.904 15.216L61.376 24L59.424 24.016ZM74.7444 24.192C74.0724 24.192 73.5177 24.08 73.0804 23.856C72.643 23.632 72.3177 23.3387 72.1044 22.976C71.891 22.6027 71.7844 22.1973 71.7844 21.76C71.7844 20.992 72.083 20.384 72.6804 19.936C73.2777 19.488 74.131 19.264 75.2404 19.264H77.3204V19.12C77.3204 18.5013 77.1497 18.0373 76.8084 17.728C76.4777 17.4187 76.0457 17.264 75.5124 17.264C75.043 17.264 74.6324 17.3813 74.2804 17.616C73.939 17.84 73.731 18.176 73.6564 18.624H71.9604C72.0137 18.048 72.2057 17.5573 72.5364 17.152C72.8777 16.736 73.3044 16.4213 73.8164 16.208C74.339 15.984 74.9097 15.872 75.5284 15.872C76.6377 15.872 77.4964 16.1653 78.1044 16.752C78.7124 17.328 79.0164 18.1173 79.0164 19.12V24H77.5444L77.4004 22.64C77.1764 23.0773 76.851 23.4453 76.4244 23.744C75.9977 24.0427 75.4377 24.192 74.7444 24.192ZM75.0804 22.816C75.539 22.816 75.923 22.7093 76.2324 22.496C76.5524 22.272 76.7977 21.9787 76.9684 21.616C77.1497 21.2533 77.2617 20.8533 77.3044 20.416H75.4164C74.7444 20.416 74.2644 20.5333 73.9764 20.768C73.699 21.0027 73.5604 21.296 73.5604 21.648C73.5604 22.0107 73.6937 22.2987 73.9604 22.512C74.2377 22.7147 74.611 22.816 75.0804 22.816ZM84.1656 24C83.387 24 82.7683 23.8133 82.3096 23.44C81.851 23.056 81.6216 22.3787 81.6216 21.408V17.488H80.2616V16.064H81.6216L81.8296 14.048H83.3176V16.064H85.5576V17.488H83.3176V21.408C83.3176 21.8453 83.4083 22.1493 83.5896 22.32C83.7816 22.48 84.107 22.56 84.5656 22.56H85.4776V24H84.1656ZM90.8633 24.192C90.0846 24.192 89.3859 24.016 88.7673 23.664C88.1593 23.312 87.6793 22.8267 87.3273 22.208C86.9859 21.5787 86.8153 20.8533 86.8153 20.032C86.8153 19.2107 86.9859 18.4907 87.3273 17.872C87.6793 17.2427 88.1593 16.752 88.7673 16.4C89.3859 16.048 90.0846 15.872 90.8633 15.872C91.8446 15.872 92.6659 16.128 93.3273 16.64C93.9993 17.152 94.4313 17.8453 94.6233 18.72H92.8473C92.7406 18.2827 92.5059 17.9413 92.1433 17.696C91.7806 17.4507 91.3539 17.328 90.8633 17.328C90.4473 17.328 90.0633 17.4347 89.7113 17.648C89.3593 17.8507 89.0766 18.1547 88.8633 18.56C88.6499 18.9547 88.5433 19.4453 88.5433 20.032C88.5433 20.6187 88.6499 21.1147 88.8633 21.52C89.0766 21.9147 89.3593 22.2187 89.7113 22.432C90.0633 22.6453 90.4473 22.752 90.8633 22.752C91.3539 22.752 91.7806 22.6293 92.1433 22.384C92.5059 22.1387 92.7406 21.792 92.8473 21.344H94.6233C94.4419 22.1973 94.0153 22.8853 93.3433 23.408C92.6713 23.9307 91.8446 24.192 90.8633 24.192ZM96.4626 24V12.48H98.1586V17.344C98.4253 16.8853 98.7933 16.528 99.2626 16.272C99.7426 16.0053 100.271 15.872 100.847 15.872C101.796 15.872 102.543 16.1707 103.087 16.768C103.631 17.3653 103.903 18.256 103.903 19.44V24H102.223V19.616C102.223 18.08 101.609 17.312 100.383 17.312C99.7426 17.312 99.2093 17.536 98.7826 17.984C98.3666 18.432 98.1586 19.072 98.1586 19.904V24H96.4626ZM112.155 24L109.179 16.064H110.955L113.163 22.384L115.371 16.064H117.131L114.171 24H112.155ZM119.485 14.56C119.165 14.56 118.898 14.464 118.685 14.272C118.482 14.0693 118.381 13.8187 118.381 13.52C118.381 13.2213 118.482 12.976 118.685 12.784C118.898 12.5813 119.165 12.48 119.485 12.48C119.805 12.48 120.066 12.5813 120.269 12.784C120.482 12.976 120.589 13.2213 120.589 13.52C120.589 13.8187 120.482 14.0693 120.269 14.272C120.066 14.464 119.805 14.56 119.485 14.56ZM118.637 24V16.064H120.333V24H118.637ZM126.188 24.192C125.42 24.192 124.743 24.0107 124.156 23.648C123.569 23.2853 123.111 22.7893 122.78 22.16C122.449 21.5307 122.284 20.816 122.284 20.016C122.284 19.216 122.449 18.5067 122.78 17.888C123.111 17.2587 123.569 16.768 124.156 16.416C124.753 16.0533 125.436 15.872 126.204 15.872C126.833 15.872 127.383 15.9947 127.852 16.24C128.332 16.4853 128.705 16.832 128.972 17.28V12.48H130.668V24H129.148L128.972 22.768C128.716 23.1413 128.364 23.472 127.916 23.76C127.468 24.048 126.892 24.192 126.188 24.192ZM126.492 22.72C127.217 22.72 127.809 22.4693 128.268 21.968C128.737 21.4667 128.972 20.8213 128.972 20.032C128.972 19.232 128.737 18.5867 128.268 18.096C127.809 17.5947 127.217 17.344 126.492 17.344C125.767 17.344 125.169 17.5947 124.7 18.096C124.231 18.5867 123.996 19.232 123.996 20.032C123.996 20.5547 124.103 21.0187 124.316 21.424C124.529 21.8293 124.823 22.1493 125.196 22.384C125.58 22.608 126.012 22.72 126.492 22.72ZM136.518 24.192C135.74 24.192 135.046 24.0213 134.438 23.68C133.841 23.328 133.372 22.8427 133.03 22.224C132.689 21.6053 132.518 20.8853 132.518 20.064C132.518 19.232 132.684 18.5013 133.014 17.872C133.356 17.2427 133.825 16.752 134.422 16.4C135.03 16.048 135.734 15.872 136.534 15.872C137.313 15.872 137.99 16.048 138.566 16.4C139.142 16.7413 139.59 17.2 139.91 17.776C140.23 18.352 140.39 18.9867 140.39 19.68C140.39 19.7867 140.385 19.904 140.374 20.032C140.374 20.1493 140.369 20.2827 140.358 20.432H134.182C134.236 21.2 134.486 21.7867 134.934 22.192C135.393 22.5867 135.921 22.784 136.518 22.784C136.998 22.784 137.398 22.6773 137.718 22.464C138.049 22.24 138.294 21.9413 138.454 21.568H140.15C139.937 22.3147 139.51 22.9387 138.87 23.44C138.241 23.9413 137.457 24.192 136.518 24.192ZM136.518 17.264C135.953 17.264 135.452 17.4347 135.014 17.776C134.577 18.1067 134.31 18.608 134.214 19.28H138.694C138.662 18.6613 138.444 18.1707 138.038 17.808C137.633 17.4453 137.126 17.264 136.518 17.264ZM145.862 24.192C145.105 24.192 144.422 24.0213 143.814 23.68C143.217 23.328 142.742 22.8427 142.39 22.224C142.038 21.5947 141.862 20.864 141.862 20.032C141.862 19.2 142.038 18.4747 142.39 17.856C142.753 17.2267 143.238 16.7413 143.846 16.4C144.454 16.048 145.131 15.872 145.878 15.872C146.635 15.872 147.313 16.048 147.91 16.4C148.518 16.7413 148.998 17.2267 149.35 17.856C149.713 18.4747 149.894 19.2 149.894 20.032C149.894 20.864 149.713 21.5947 149.35 22.224C148.998 22.8427 148.518 23.328 147.91 23.68C147.302 24.0213 146.619 24.192 145.862 24.192ZM145.862 22.736C146.267 22.736 146.641 22.6347 146.982 22.432C147.334 22.2293 147.617 21.9307 147.83 21.536C148.043 21.1307 148.15 20.6293 148.15 20.032C148.15 19.4347 148.043 18.9387 147.83 18.544C147.627 18.1387 147.35 17.8347 146.998 17.632C146.657 17.4293 146.283 17.328 145.878 17.328C145.473 17.328 145.094 17.4293 144.742 17.632C144.401 17.8347 144.123 18.1387 143.91 18.544C143.697 18.9387 143.59 19.4347 143.59 20.032C143.59 20.6293 143.697 21.1307 143.91 21.536C144.123 21.9307 144.401 22.2293 144.742 22.432C145.083 22.6347 145.457 22.736 145.862 22.736Z" fill="#F9FAFB"/>
<path fill-rule="evenodd" clip-rule="evenodd" d="M18 3C26.2845 3 33 9.7155 33 18C33 26.2845 26.2845 33 18 33C9.7155 33 3 26.2845 3 18C3 9.7155 9.7155 3 18 3ZM18 6C14.8174 6 11.7652 7.26428 9.51472 9.51472C7.26428 11.7652 6 14.8174 6 18C6 21.1826 7.26428 24.2348 9.51472 26.4853C11.7652 28.7357 14.8174 30 18 30C21.1826 30 24.2348 28.7357 26.4853 26.4853C28.7357 24.2348 30 21.1826 30 18C30 14.8174 28.7357 11.7652 26.4853 9.51472C24.2348 7.26428 21.1826 6 18 6ZM15.756 10.704L24.756 16.704C24.9681 16.8275 25.1467 17.0012 25.276 17.2099C25.4053 17.4185 25.4815 17.6557 25.4978 17.9007C25.5141 18.1456 25.47 18.3908 25.3694 18.6147C25.2689 18.8386 25.1149 19.0345 24.921 19.185L15.756 25.296C15.528 25.429 15.269 25.4995 15.0051 25.5004C14.7412 25.5013 14.4817 25.4326 14.2528 25.3011C14.024 25.1696 13.8338 24.9801 13.7017 24.7517C13.5695 24.5232 13.4999 24.2639 13.5 24V12C13.4999 11.7361 13.5695 11.4768 13.7017 11.2483C13.8338 11.0199 14.024 10.8304 14.2528 10.6989C14.4817 10.5674 14.7412 10.4987 15.0051 10.4996C15.269 10.5005 15.528 10.571 15.756 10.704Z" fill="white"/>
</svg>
