<svg width="116" height="40" viewBox="0 0 116 40" fill="none" xmlns="http://www.w3.org/2000/svg">
<path d="M33.9759 14.6563C34.5646 14.4986 35.0852 14.1515 35.4574 13.6688C35.8294 13.186 36.0323 12.5942 36.035 11.9847V11.9774C36.035 11.2449 35.744 10.5423 35.2259 10.0243C34.7079 9.50634 34.0053 9.21533 33.2729 9.21533H33.2658C32.6563 9.218 32.0646 9.42102 31.582 9.7931C31.0993 10.1652 30.7522 10.6857 30.5946 11.2744C30.1434 12.9089 29.1683 14.3503 27.8192 15.3775C26.47 16.4046 24.8212 16.9609 23.1255 16.9609C21.4299 16.9609 19.781 16.4046 18.4318 15.3775C17.0827 14.3503 16.1077 12.9089 15.6565 11.2744C15.4986 10.6857 15.1516 10.1653 14.6688 9.79332C14.1861 9.42131 13.5944 9.21838 12.985 9.21579H12.9777C12.2452 9.21579 11.5426 9.5068 11.0246 10.0248C10.5066 10.5428 10.2156 11.2453 10.2156 11.9779V11.9851C10.2183 12.5946 10.4214 13.1862 10.7934 13.6689C11.1655 14.1516 11.686 14.4986 12.2747 14.6563C13.9092 15.1075 15.3506 16.0825 16.3778 17.4317C17.4049 18.7808 17.9612 20.4297 17.9612 22.1254C17.9612 23.821 17.4049 25.4698 16.3778 26.8191C15.3506 28.1683 13.9092 29.1432 12.2747 29.5944C11.686 29.7522 11.1656 30.0991 10.7935 30.5818C10.4215 31.0645 10.2185 31.6561 10.2158 32.2654V32.2727C10.2158 33.0053 10.5068 33.7078 11.0248 34.2259C11.5428 34.7438 12.2453 35.0348 12.9779 35.0348H12.9851C13.5946 35.0322 14.1862 34.8291 14.6689 34.457C15.1516 34.0849 15.4986 33.5644 15.6563 32.9757C16.1076 31.3412 17.0825 29.8999 18.4317 28.8727C19.7808 27.8454 21.4297 27.2893 23.1254 27.2893C24.821 27.2893 26.4699 27.8454 27.8191 28.8727C29.1681 29.8999 30.1432 31.3412 30.5944 32.9757C30.7521 33.5644 31.0991 34.085 31.5818 34.4572C32.0645 34.8292 32.6563 35.0323 33.2658 35.0349H33.273C34.0055 35.0349 34.7081 34.7438 35.226 34.2259C35.744 33.7079 36.0351 33.0053 36.0351 32.2728V32.2654C36.0325 31.6559 35.8294 31.0643 35.4574 30.5816C35.0852 30.099 34.5647 29.7521 33.976 29.5943C32.3416 29.143 30.9002 28.1681 29.873 26.8189C28.8458 25.4697 28.2896 23.8209 28.2896 22.1252C28.2896 20.4295 28.8458 18.7807 29.873 17.4315C30.9002 16.0824 32.3416 15.1074 33.976 14.6562L33.9759 14.6563Z" fill="#AF51C5"/>
<path d="M33.9759 14.6563C34.5646 14.4986 35.0852 14.1515 35.4574 13.6688C35.8294 13.186 36.0323 12.5942 36.035 11.9847V11.9774C36.035 11.2449 35.744 10.5423 35.2259 10.0243C34.7079 9.50634 34.0053 9.21533 33.2729 9.21533H33.2658C32.6563 9.218 32.0646 9.42102 31.582 9.7931C31.0993 10.1652 30.7522 10.6857 30.5946 11.2744C30.1434 12.9089 29.1683 14.3503 27.8192 15.3775C26.47 16.4046 24.8212 16.9609 23.1255 16.9609C21.4299 16.9609 19.781 16.4046 18.4318 15.3775C17.0827 14.3503 16.1077 12.9089 15.6565 11.2744C15.4986 10.6857 15.1516 10.1653 14.6688 9.79332C14.1861 9.42131 13.5944 9.21838 12.985 9.21579H12.9777C12.2452 9.21579 11.5426 9.5068 11.0246 10.0248C10.5066 10.5428 10.2156 11.2453 10.2156 11.9779V11.9851C10.2183 12.5946 10.4214 13.1862 10.7934 13.6689C11.1655 14.1516 11.686 14.4986 12.2747 14.6563C13.9092 15.1075 15.3506 16.0825 16.3778 17.4317C17.4049 18.7808 17.9612 20.4297 17.9612 22.1254C17.9612 23.821 17.4049 25.4698 16.3778 26.8191C15.3506 28.1683 13.9092 29.1432 12.2747 29.5944C11.686 29.7522 11.1656 30.0991 10.7935 30.5818C10.4215 31.0645 10.2185 31.6561 10.2158 32.2654V32.2727C10.2158 33.0053 10.5068 33.7078 11.0248 34.2259C11.5428 34.7438 12.2453 35.0348 12.9779 35.0348H12.9851C13.5946 35.0322 14.1862 34.8291 14.6689 34.457C15.1516 34.0849 15.4986 33.5644 15.6563 32.9757C16.1076 31.3412 17.0825 29.8999 18.4317 28.8727C19.7808 27.8454 21.4297 27.2893 23.1254 27.2893C24.821 27.2893 26.4699 27.8454 27.8191 28.8727C29.1681 29.8999 30.1432 31.3412 30.5944 32.9757C30.7521 33.5644 31.0991 34.085 31.5818 34.4572C32.0645 34.8292 32.6563 35.0323 33.2658 35.0349H33.273C34.0055 35.0349 34.7081 34.7438 35.226 34.2259C35.744 33.7079 36.0351 33.0053 36.0351 32.2728V32.2654C36.0325 31.6559 35.8294 31.0643 35.4574 30.5816C35.0852 30.099 34.5647 29.7521 33.976 29.5943C32.3416 29.143 30.9002 28.1681 29.873 26.8189C28.8458 25.4697 28.2896 23.8209 28.2896 22.1252C28.2896 20.4295 28.8458 18.7807 29.873 17.4315C30.9002 16.0824 32.3416 15.1074 33.976 14.6562L33.9759 14.6563Z" fill="url(#paint0_linear_1_472)"/>
<path d="M9.61418 6.63604C9.70303 6.7244 9.81721 6.78289 9.94083 6.80335C10.0645 6.82382 10.1914 6.80525 10.304 6.75023C11.3312 6.25414 12.4871 6.08891 13.6121 6.27732C14.7373 6.46573 15.7762 6.9985 16.5858 7.80218C16.6974 7.91463 16.8482 7.97948 17.0066 7.98311C17.165 7.98673 17.3186 7.92884 17.4352 7.8216C17.4932 7.76629 17.5395 7.69996 17.5714 7.6265C17.6034 7.55303 17.6203 7.47393 17.6213 7.39382C17.6222 7.31372 17.6071 7.23424 17.5769 7.16005C17.5466 7.08587 17.5019 7.01847 17.4452 6.96182C16.458 5.97701 15.1887 5.32385 13.8135 5.09296C12.4383 4.86208 11.0253 5.06491 9.7706 5.67332C9.68518 5.71568 9.61107 5.7778 9.55445 5.85452C9.49783 5.93125 9.46032 6.02037 9.44502 6.11449C9.42973 6.20861 9.4371 6.30502 9.46651 6.39572C9.49593 6.48643 9.54656 6.56881 9.61418 6.63604Z" fill="#AF51C5"/>
<path d="M9.61418 6.63604C9.70303 6.7244 9.81721 6.78289 9.94083 6.80335C10.0645 6.82382 10.1914 6.80525 10.304 6.75023C11.3312 6.25414 12.4871 6.08891 13.6121 6.27732C14.7373 6.46573 15.7762 6.9985 16.5858 7.80218C16.6974 7.91463 16.8482 7.97948 17.0066 7.98311C17.165 7.98673 17.3186 7.92884 17.4352 7.8216C17.4932 7.76629 17.5395 7.69996 17.5714 7.6265C17.6034 7.55303 17.6203 7.47393 17.6213 7.39382C17.6222 7.31372 17.6071 7.23424 17.5769 7.16005C17.5466 7.08587 17.5019 7.01847 17.4452 6.96182C16.458 5.97701 15.1887 5.32385 13.8135 5.09296C12.4383 4.86208 11.0253 5.06491 9.7706 5.67332C9.68518 5.71568 9.61107 5.7778 9.55445 5.85452C9.49783 5.93125 9.46032 6.02037 9.44502 6.11449C9.42973 6.20861 9.4371 6.30502 9.46651 6.39572C9.49593 6.48643 9.54656 6.56881 9.61418 6.63604Z" fill="url(#paint1_linear_1_472)"/>
<path d="M6.67546 8.76588C6.0678 10.0166 5.86323 11.425 6.08999 12.7969C6.31675 14.1688 6.96366 15.4365 7.94147 16.4251C8.04429 16.5332 8.18276 16.6003 8.33128 16.6142C8.47978 16.628 8.62828 16.5876 8.74931 16.5005C8.81788 16.4487 8.87454 16.3827 8.91547 16.3072C8.95641 16.2316 8.98066 16.1481 8.98658 16.0624C8.99251 15.9767 8.97998 15.8907 8.94986 15.8102C8.91971 15.7297 8.87266 15.6566 8.81188 15.5959C8.00409 14.7861 7.46811 13.7451 7.27822 12.6172C7.08834 11.4893 7.25394 10.3302 7.75207 9.30064C7.80751 9.18793 7.82638 9.06073 7.80607 8.93678C7.78578 8.81281 7.72729 8.69829 7.6388 8.60915C7.57152 8.54147 7.48908 8.49081 7.3983 8.46138C7.30753 8.43196 7.21104 8.42459 7.11685 8.43991C7.02267 8.45525 6.93349 8.4928 6.85672 8.5495C6.77996 8.60618 6.71782 8.68037 6.67546 8.76588Z" fill="#AF51C5"/>
<path d="M6.67546 8.76588C6.0678 10.0166 5.86323 11.425 6.08999 12.7969C6.31675 14.1688 6.96366 15.4365 7.94147 16.4251C8.04429 16.5332 8.18276 16.6003 8.33128 16.6142C8.47978 16.628 8.62828 16.5876 8.74931 16.5005C8.81788 16.4487 8.87454 16.3827 8.91547 16.3072C8.95641 16.2316 8.98066 16.1481 8.98658 16.0624C8.99251 15.9767 8.97998 15.8907 8.94986 15.8102C8.91971 15.7297 8.87266 15.6566 8.81188 15.5959C8.00409 14.7861 7.46811 13.7451 7.27822 12.6172C7.08834 11.4893 7.25394 10.3302 7.75207 9.30064C7.80751 9.18793 7.82638 9.06073 7.80607 8.93678C7.78578 8.81281 7.72729 8.69829 7.6388 8.60915C7.57152 8.54147 7.48908 8.49081 7.3983 8.46138C7.30753 8.43196 7.21104 8.42459 7.11685 8.43991C7.02267 8.45525 6.93349 8.4928 6.85672 8.5495C6.77996 8.60618 6.71782 8.68037 6.67546 8.76588Z" fill="url(#paint2_linear_1_472)"/>
<path d="M35.9473 37.5006C34.9197 37.9968 33.7635 38.162 32.6381 37.9732C31.5128 37.7846 30.4736 37.2514 29.6641 36.4473C29.5526 36.3354 29.4024 36.2708 29.2446 36.2673C29.0866 36.2636 28.9336 36.3212 28.8172 36.428C28.759 36.4832 28.7124 36.5496 28.6802 36.6231C28.6482 36.6966 28.6311 36.7758 28.63 36.8561C28.6289 36.9364 28.644 37.0161 28.6742 37.0904C28.7044 37.1648 28.7493 37.2323 28.806 37.289C29.7932 38.2738 31.0625 38.9269 32.4377 39.1579C33.8128 39.3887 35.2259 39.1859 36.4806 38.5775C36.566 38.5351 36.6401 38.473 36.6968 38.3963C36.7534 38.3195 36.7909 38.2305 36.8061 38.1363C36.8214 38.0421 36.814 37.9457 36.7845 37.855C36.7551 37.7643 36.7044 37.682 36.6367 37.6148C36.548 37.5265 36.4338 37.4681 36.3102 37.4476C36.1867 37.4271 36.0598 37.4456 35.9473 37.5006Z" fill="#AF51C5"/>
<path d="M35.9473 37.5006C34.9197 37.9968 33.7635 38.162 32.6381 37.9732C31.5128 37.7846 30.4736 37.2514 29.6641 36.4473C29.5526 36.3354 29.4024 36.2708 29.2446 36.2673C29.0866 36.2636 28.9336 36.3212 28.8172 36.428C28.759 36.4832 28.7124 36.5496 28.6802 36.6231C28.6482 36.6966 28.6311 36.7758 28.63 36.8561C28.6289 36.9364 28.644 37.0161 28.6742 37.0904C28.7044 37.1648 28.7493 37.2323 28.806 37.289C29.7932 38.2738 31.0625 38.9269 32.4377 39.1579C33.8128 39.3887 35.2259 39.1859 36.4806 38.5775C36.566 38.5351 36.6401 38.473 36.6968 38.3963C36.7534 38.3195 36.7909 38.2305 36.8061 38.1363C36.8214 38.0421 36.814 37.9457 36.7845 37.855C36.7551 37.7643 36.7044 37.682 36.6367 37.6148C36.548 37.5265 36.4338 37.4681 36.3102 37.4476C36.1867 37.4271 36.0598 37.4456 35.9473 37.5006Z" fill="url(#paint3_linear_1_472)"/>
<path d="M37.428 27.8168C37.3212 27.9331 37.2636 28.0862 37.2673 28.2441C37.2708 28.4019 37.3354 28.5524 37.4473 28.6636C38.252 29.4738 38.7854 30.5139 38.9736 31.6401C39.1619 32.7665 38.9957 33.9234 38.4983 34.9513C38.4431 35.0639 38.4245 35.1909 38.4448 35.3147C38.4653 35.4384 38.5237 35.5528 38.6122 35.6417C38.6794 35.7093 38.7617 35.7599 38.8523 35.7895C38.9429 35.8189 39.0392 35.8263 39.1334 35.8111C39.2274 35.7958 39.3166 35.7585 39.3932 35.7019C39.4699 35.6454 39.5322 35.5714 39.5746 35.486C40.1849 34.231 40.389 32.817 40.1588 31.4407C39.9286 30.0642 39.2753 28.7937 38.2898 27.8055C38.2331 27.7487 38.1654 27.7038 38.091 27.6735C38.0165 27.6431 37.9369 27.628 37.8566 27.6291C37.7761 27.6302 37.6969 27.6473 37.6232 27.6796C37.5496 27.7118 37.4833 27.7584 37.428 27.8168Z" fill="#AF51C5"/>
<path d="M37.428 27.8168C37.3212 27.9331 37.2636 28.0862 37.2673 28.2441C37.2708 28.4019 37.3354 28.5524 37.4473 28.6636C38.252 29.4738 38.7854 30.5139 38.9736 31.6401C39.1619 32.7665 38.9957 33.9234 38.4983 34.9513C38.4431 35.0639 38.4245 35.1909 38.4448 35.3147C38.4653 35.4384 38.5237 35.5528 38.6122 35.6417C38.6794 35.7093 38.7617 35.7599 38.8523 35.7895C38.9429 35.8189 39.0392 35.8263 39.1334 35.8111C39.2274 35.7958 39.3166 35.7585 39.3932 35.7019C39.4699 35.6454 39.5322 35.5714 39.5746 35.486C40.1849 34.231 40.389 32.817 40.1588 31.4407C39.9286 30.0642 39.2753 28.7937 38.2898 27.8055C38.2331 27.7487 38.1654 27.7038 38.091 27.6735C38.0165 27.6431 37.9369 27.628 37.8566 27.6291C37.7761 27.6302 37.6969 27.6473 37.6232 27.6796C37.5496 27.7118 37.4833 27.7584 37.428 27.8168Z" fill="url(#paint4_linear_1_472)"/>
<path d="M38.4994 9.30144C38.9964 10.3291 39.162 11.4858 38.9736 12.6117C38.7851 13.7376 38.2517 14.7772 37.4473 15.5871C37.3354 15.6984 37.2708 15.8487 37.2673 16.0065C37.2636 16.1644 37.3212 16.3175 37.428 16.4338C37.4832 16.492 37.5496 16.5386 37.6231 16.5708C37.6966 16.6029 37.7758 16.6201 37.8561 16.6211C37.9364 16.6222 38.0159 16.6072 38.0904 16.5769C38.1646 16.5467 38.2323 16.5019 38.289 16.4452C39.2742 15.4575 39.9276 14.1875 40.1582 12.8116C40.3889 11.4357 40.1855 10.0221 39.5761 8.76714C39.5337 8.68175 39.4715 8.60771 39.3947 8.55115C39.318 8.49458 39.2289 8.45713 39.1348 8.44191C39.0407 8.42668 38.9443 8.43409 38.8537 8.46356C38.7629 8.49303 38.6806 8.54368 38.6134 8.61133C38.5251 8.70024 38.4665 8.81448 38.446 8.93815C38.4257 9.06184 38.4443 9.18881 38.4994 9.30144Z" fill="#AF51C5"/>
<path d="M38.4994 9.30144C38.9964 10.3291 39.162 11.4858 38.9736 12.6117C38.7851 13.7376 38.2517 14.7772 37.4473 15.5871C37.3354 15.6984 37.2708 15.8487 37.2673 16.0065C37.2636 16.1644 37.3212 16.3175 37.428 16.4338C37.4832 16.492 37.5496 16.5386 37.6231 16.5708C37.6966 16.6029 37.7758 16.6201 37.8561 16.6211C37.9364 16.6222 38.0159 16.6072 38.0904 16.5769C38.1646 16.5467 38.2323 16.5019 38.289 16.4452C39.2742 15.4575 39.9276 14.1875 40.1582 12.8116C40.3889 11.4357 40.1855 10.0221 39.5761 8.76714C39.5337 8.68175 39.4715 8.60771 39.3947 8.55115C39.318 8.49458 39.2289 8.45713 39.1348 8.44191C39.0407 8.42668 38.9443 8.43409 38.8537 8.46356C38.7629 8.49303 38.6806 8.54368 38.6134 8.61133C38.5251 8.70024 38.4665 8.81448 38.446 8.93815C38.4257 9.06184 38.4443 9.18881 38.4994 9.30144Z" fill="url(#paint5_linear_1_472)"/>
<path d="M29.6638 7.80349C30.4737 6.99893 31.5133 6.46561 32.6392 6.27713C33.7651 6.08864 34.9217 6.2543 35.9495 6.75123C36.0621 6.80639 36.1891 6.82505 36.3127 6.80463C36.4365 6.78423 36.5507 6.72575 36.6396 6.63735C36.7072 6.57017 36.7579 6.48783 36.7874 6.39715C36.8168 6.30648 36.8242 6.21008 36.809 6.11597C36.7938 6.02185 36.7564 5.93272 36.6998 5.85597C36.6433 5.77922 36.5692 5.71706 36.4838 5.67464C35.2287 5.06527 33.8152 4.86179 32.4393 5.09245C31.0634 5.3231 29.7934 5.97644 28.8057 6.96175C28.749 7.01851 28.7042 7.08604 28.674 7.16038C28.6438 7.23474 28.6287 7.31438 28.6298 7.39463C28.6308 7.47489 28.6479 7.55411 28.68 7.62764C28.7122 7.70118 28.7587 7.76752 28.817 7.82276C28.9333 7.92949 29.0864 7.98708 29.2443 7.98349C29.4022 7.9799 29.5524 7.91541 29.6638 7.80349Z" fill="#AF51C5"/>
<path d="M29.6638 7.80349C30.4737 6.99893 31.5133 6.46561 32.6392 6.27713C33.7651 6.08864 34.9217 6.2543 35.9495 6.75123C36.0621 6.80639 36.1891 6.82505 36.3127 6.80463C36.4365 6.78423 36.5507 6.72575 36.6396 6.63735C36.7072 6.57017 36.7579 6.48783 36.7874 6.39715C36.8168 6.30648 36.8242 6.21008 36.809 6.11597C36.7938 6.02185 36.7564 5.93272 36.6998 5.85597C36.6433 5.77922 36.5692 5.71706 36.4838 5.67464C35.2287 5.06527 33.8152 4.86179 32.4393 5.09245C31.0634 5.3231 29.7934 5.97644 28.8057 6.96175C28.749 7.01851 28.7042 7.08604 28.674 7.16038C28.6438 7.23474 28.6287 7.31438 28.6298 7.39463C28.6308 7.47489 28.6479 7.55411 28.68 7.62764C28.7122 7.70118 28.7587 7.76752 28.817 7.82276C28.9333 7.92949 29.0864 7.98708 29.2443 7.98349C29.4022 7.9799 29.5524 7.91541 29.6638 7.80349Z" fill="url(#paint6_linear_1_472)"/>
<path d="M16.5873 36.4473C15.7774 37.2517 14.7378 37.7851 13.6119 37.9736C12.486 38.162 11.3293 37.9964 10.3016 37.4994C10.189 37.4444 10.062 37.4257 9.93835 37.4461C9.81466 37.4666 9.70042 37.5251 9.61151 37.6134C9.54388 37.6806 9.49322 37.7629 9.46375 37.8537C9.43429 37.9443 9.42686 38.0408 9.44209 38.1348C9.45733 38.2289 9.49478 38.318 9.55133 38.3948C9.60789 38.4715 9.68194 38.5338 9.76732 38.5761C11.0223 39.1855 12.4359 39.3889 13.8118 39.1582C15.1877 38.9277 16.4577 38.2742 17.4454 37.289C17.5021 37.2323 17.5469 37.1647 17.5771 37.0904C17.6073 37.0161 17.6224 36.9364 17.6213 36.8561C17.6202 36.7758 17.6031 36.6966 17.5709 36.6231C17.5388 36.5496 17.4922 36.4832 17.4339 36.428C17.3177 36.3212 17.1646 36.2636 17.0067 36.2671C16.8489 36.2708 16.6986 36.3352 16.5873 36.4473Z" fill="#AF51C5"/>
<path d="M16.5873 36.4473C15.7774 37.2517 14.7378 37.7851 13.6119 37.9736C12.486 38.162 11.3293 37.9964 10.3016 37.4994C10.189 37.4444 10.062 37.4257 9.93835 37.4461C9.81466 37.4666 9.70042 37.5251 9.61151 37.6134C9.54388 37.6806 9.49322 37.7629 9.46375 37.8537C9.43429 37.9443 9.42686 38.0408 9.44209 38.1348C9.45733 38.2289 9.49478 38.318 9.55133 38.3948C9.60789 38.4715 9.68194 38.5338 9.76732 38.5761C11.0223 39.1855 12.4359 39.3889 13.8118 39.1582C15.1877 38.9277 16.4577 38.2742 17.4454 37.289C17.5021 37.2323 17.5469 37.1647 17.5771 37.0904C17.6073 37.0161 17.6224 36.9364 17.6213 36.8561C17.6202 36.7758 17.6031 36.6966 17.5709 36.6231C17.5388 36.5496 17.4922 36.4832 17.4339 36.428C17.3177 36.3212 17.1646 36.2636 17.0067 36.2671C16.8489 36.2708 16.6986 36.3352 16.5873 36.4473Z" fill="url(#paint7_linear_1_472)"/>
<path d="M7.75146 34.9493C7.25446 33.9215 7.08875 32.765 7.2772 31.639C7.46566 30.5131 7.99899 29.4735 8.80356 28.6636C8.91546 28.5522 8.97997 28.402 8.98356 28.2442C8.98715 28.0862 8.92955 27.9332 8.82283 27.8168C8.76758 27.7586 8.70124 27.712 8.62771 27.6798C8.55417 27.6478 8.47494 27.6306 8.3947 27.6296C8.31445 27.6285 8.23479 27.6436 8.16045 27.6738C8.08611 27.704 8.01856 27.7489 7.96182 27.8056C6.9765 28.7932 6.32316 30.0633 6.09251 31.4392C5.86185 32.815 6.06533 34.2285 6.6747 35.4836C6.71711 35.569 6.77928 35.6431 6.85603 35.6997C6.93278 35.7562 7.02191 35.7937 7.11603 35.8088C7.21015 35.824 7.30654 35.8166 7.39721 35.7872C7.48789 35.7578 7.57023 35.7071 7.63742 35.6394C7.7258 35.5505 7.78427 35.4363 7.80472 35.3125C7.82515 35.1889 7.80654 35.062 7.75146 34.9493Z" fill="#AF51C5"/>
<path d="M7.75146 34.9493C7.25446 33.9215 7.08875 32.765 7.2772 31.639C7.46566 30.5131 7.99899 29.4735 8.80356 28.6636C8.91546 28.5522 8.97997 28.402 8.98356 28.2442C8.98715 28.0862 8.92955 27.9332 8.82283 27.8168C8.76758 27.7586 8.70124 27.712 8.62771 27.6798C8.55417 27.6478 8.47494 27.6306 8.3947 27.6296C8.31445 27.6285 8.23479 27.6436 8.16045 27.6738C8.08611 27.704 8.01856 27.7489 7.96182 27.8056C6.9765 28.7932 6.32316 30.0633 6.09251 31.4392C5.86185 32.815 6.06533 34.2285 6.6747 35.4836C6.71711 35.569 6.77928 35.6431 6.85603 35.6997C6.93278 35.7562 7.02191 35.7937 7.11603 35.8088C7.21015 35.824 7.30654 35.8166 7.39721 35.7872C7.48789 35.7578 7.57023 35.7071 7.63742 35.6394C7.7258 35.5505 7.78427 35.4363 7.80472 35.3125C7.82515 35.1889 7.80654 35.062 7.75146 34.9493Z" fill="url(#paint8_linear_1_472)"/>
<path d="M49.26 29C49.1133 29 48.9933 28.9533 48.9 28.86C48.82 28.7667 48.78 28.6467 48.78 28.5V27.1C48.78 26.8733 48.8267 26.7 48.92 26.58C49.0133 26.4467 49.0667 26.3733 49.08 26.36L56.04 17.36H49.46C49.3267 17.36 49.2133 17.3133 49.12 17.22C49.0267 17.1267 48.98 17.0133 48.98 16.88V15.5C48.98 15.3533 49.02 15.2333 49.1 15.14C49.1933 15.0467 49.3133 15 49.46 15H59.02C59.1667 15 59.2867 15.0467 59.38 15.14C59.4733 15.2333 59.52 15.3533 59.52 15.5V16.88C59.52 17.12 59.4333 17.3533 59.26 17.58L52.44 26.62H59.24C59.3867 26.62 59.5067 26.6667 59.6 26.76C59.6933 26.8533 59.74 26.9733 59.74 27.12V28.52C59.74 28.6667 59.6933 28.7867 59.6 28.88C59.5067 28.96 59.3867 29 59.24 29H49.26ZM66.2052 29.2C64.6452 29.2 63.4385 28.8 62.5852 28C61.7318 27.1867 61.2718 26.08 61.2052 24.68L61.1852 23.8L61.2052 22.92C61.2718 21.5333 61.7385 20.4333 62.6052 19.62C63.4718 18.8067 64.6718 18.4 66.2052 18.4C67.7385 18.4 68.9385 18.8067 69.8052 19.62C70.6718 20.4333 71.1385 21.5333 71.2052 22.92C71.2185 23.08 71.2252 23.3733 71.2252 23.8C71.2252 24.2267 71.2185 24.52 71.2052 24.68C71.1385 26.08 70.6785 27.1867 69.8252 28C68.9718 28.8 67.7652 29.2 66.2052 29.2ZM66.2052 27.22C66.9118 27.22 67.4585 27 67.8452 26.56C68.2318 26.1067 68.4452 25.4467 68.4852 24.58C68.4985 24.4467 68.5052 24.1867 68.5052 23.8C68.5052 23.4133 68.4985 23.1533 68.4852 23.02C68.4452 22.1533 68.2318 21.5 67.8452 21.06C67.4585 20.6067 66.9118 20.38 66.2052 20.38C65.4985 20.38 64.9518 20.6067 64.5652 21.06C64.1785 21.5 63.9652 22.1533 63.9252 23.02L63.9052 23.8L63.9252 24.58C63.9652 25.4467 64.1785 26.1067 64.5652 26.56C64.9518 27 65.4985 27.22 66.2052 27.22ZM73.9211 29C73.7878 29 73.6744 28.9533 73.5811 28.86C73.4878 28.7667 73.4411 28.6533 73.4411 28.52V19.08C73.4411 18.9467 73.4878 18.8333 73.5811 18.74C73.6744 18.6467 73.7878 18.6 73.9211 18.6H75.5611C75.6944 18.6 75.8078 18.6467 75.9011 18.74C75.9944 18.8333 76.0411 18.9467 76.0411 19.08V19.9C76.8278 18.9 77.9411 18.4 79.3811 18.4C80.6078 18.4 81.5811 18.8067 82.3011 19.62C83.0211 20.42 83.3811 21.5133 83.3811 22.9V28.52C83.3811 28.6533 83.3344 28.7667 83.2411 28.86C83.1611 28.9533 83.0478 29 82.9011 29H81.1411C81.0078 29 80.8944 28.9533 80.8011 28.86C80.7078 28.7667 80.6611 28.6533 80.6611 28.52V23.02C80.6611 22.2333 80.4678 21.6267 80.0811 21.2C79.7078 20.76 79.1611 20.54 78.4411 20.54C77.7344 20.54 77.1744 20.76 76.7611 21.2C76.3611 21.64 76.1611 22.2467 76.1611 23.02V28.52C76.1611 28.6533 76.1144 28.7667 76.0211 28.86C75.9411 28.9533 75.8278 29 75.6811 29H73.9211ZM90.4016 29.2C88.9216 29.2 87.7416 28.7733 86.8616 27.92C85.9949 27.0533 85.5349 25.84 85.4816 24.28L85.4616 23.78L85.4816 23.28C85.5482 21.76 86.0149 20.5667 86.8816 19.7C87.7616 18.8333 88.9349 18.4 90.4016 18.4C91.9749 18.4 93.1882 18.88 94.0416 19.84C94.9082 20.8 95.3416 22.08 95.3416 23.68V24.1C95.3416 24.2333 95.2949 24.3467 95.2016 24.44C95.1082 24.5333 94.9882 24.58 94.8416 24.58H88.2016V24.74C88.2282 25.4733 88.4282 26.0933 88.8016 26.6C89.1882 27.0933 89.7149 27.34 90.3816 27.34C91.1682 27.34 91.8016 27.0333 92.2816 26.42C92.4016 26.2733 92.4949 26.18 92.5616 26.14C92.6416 26.1 92.7549 26.08 92.9016 26.08H94.6216C94.7416 26.08 94.8416 26.12 94.9216 26.2C95.0149 26.2667 95.0616 26.3533 95.0616 26.46C95.0616 26.78 94.8682 27.16 94.4816 27.6C94.1082 28.0267 93.5682 28.4 92.8616 28.72C92.1549 29.04 91.3349 29.2 90.4016 29.2ZM92.6216 22.9V22.84C92.6216 22.0533 92.4216 21.42 92.0216 20.94C91.6349 20.46 91.0949 20.22 90.4016 20.22C89.7082 20.22 89.1682 20.46 88.7816 20.94C88.3949 21.42 88.2016 22.0533 88.2016 22.84V22.9H92.6216ZM97.8245 29C97.6912 29 97.5779 28.9533 97.4845 28.86C97.3912 28.7667 97.3445 28.6533 97.3445 28.52V26.54C97.3445 26.4067 97.3912 26.2933 97.4845 26.2C97.5779 26.0933 97.6912 26.04 97.8245 26.04H99.8245C99.9579 26.04 100.071 26.0933 100.165 26.2C100.258 26.2933 100.305 26.4067 100.305 26.54V28.52C100.305 28.6533 100.258 28.7667 100.165 28.86C100.071 28.9533 99.9579 29 99.8245 29H97.8245Z" fill="white"/>
<defs>
<linearGradient id="paint0_linear_1_472" x1="18.635" y1="-2.01058" x2="30.7269" y2="49.4251" gradientUnits="userSpaceOnUse">
<stop stop-color="#2F79CB"/>
<stop offset="1" stop-color="#AF51C5"/>
</linearGradient>
<linearGradient id="paint1_linear_1_472" x1="12.106" y1="3.70328" x2="12.6394" y2="9.92851" gradientUnits="userSpaceOnUse">
<stop stop-color="#2F79CB"/>
<stop offset="1" stop-color="#AF51C5"/>
</linearGradient>
<linearGradient id="paint2_linear_1_472" x1="6.97439" y1="4.87356" x2="14.8065" y2="17.036" gradientUnits="userSpaceOnUse">
<stop stop-color="#2F79CB"/>
<stop offset="1" stop-color="#AF51C5"/>
</linearGradient>
<linearGradient id="paint3_linear_1_472" x1="31.2986" y1="34.9699" x2="31.8322" y2="41.1961" gradientUnits="userSpaceOnUse">
<stop stop-color="#2F79CB"/>
<stop offset="1" stop-color="#AF51C5"/>
</linearGradient>
<linearGradient id="paint4_linear_1_472" x1="38.2401" y1="24.0683" x2="46.0835" y2="36.2238" gradientUnits="userSpaceOnUse">
<stop stop-color="#2F79CB"/>
<stop offset="1" stop-color="#AF51C5"/>
</linearGradient>
<linearGradient id="paint5_linear_1_472" x1="38.24" y1="4.87465" x2="46.0799" y2="17.0281" gradientUnits="userSpaceOnUse">
<stop stop-color="#2F79CB"/>
<stop offset="1" stop-color="#AF51C5"/>
</linearGradient>
<linearGradient id="paint6_linear_1_472" x1="31.2994" y1="3.70276" x2="31.8328" y2="9.92932" gradientUnits="userSpaceOnUse">
<stop stop-color="#2F79CB"/>
<stop offset="1" stop-color="#AF51C5"/>
</linearGradient>
<linearGradient id="paint7_linear_1_472" x1="12.104" y1="34.9697" x2="12.6375" y2="41.1964" gradientUnits="userSpaceOnUse">
<stop stop-color="#2F79CB"/>
<stop offset="1" stop-color="#AF51C5"/>
</linearGradient>
<linearGradient id="paint8_linear_1_472" x1="6.97299" y1="24.07" x2="14.8128" y2="36.2236" gradientUnits="userSpaceOnUse">
<stop stop-color="#2F79CB"/>
<stop offset="1" stop-color="#AF51C5"/>
</linearGradient>
</defs>
</svg>
